# xmcd
#
# Track frame offsets:
# 150
# 31214
# 52876
# 73444
# 96526
# 207451
# 237139
# 254265
#
# Disc length: 4166 seconds
#
#
# Revision: 0
# Processed by: cddbd v1.5.2PL0 Copyright (c) Steve Scherf et al.
# Submitted via: FreeRIP 2.945 
#
DISCID=73104408
DTITLE=Fleetwood Mac - Live at the Boston Tea Party - Part One
DYEAR=1970
DGENRE=Blues Rock
TTITLE0=Black Magic Woman
TTITLE1=Jumping at Shadows
TTITLE2=Like it This Way
TTITLE3=Only You
TTITLE4=Rattlesnake Shake
TTITLE5=I Can't Hold Out
TTITLE6=Got to Move
TTITLE7=The Green Manalishi
EXTD=
EXTT0=
EXTT1=
EXTT2=
EXTT3=
EXTT4=
EXTT5=
EXTT6=
EXTT7=
PLAYORDER=
